<svg width="16" height="16" viewBox="0 0 16 16" fill="none" xmlns="http://www.w3.org/2000/svg">
<path opacity="0.4" d="M13.7474 5.63329C13.0474 2.55329 10.3607 1.16663 8.00069 1.16663C8.00069 1.16663 8.00069 1.16663 7.99403 1.16663C5.64067 1.16663 2.94734 2.54663 2.24734 5.62663C1.46734 9.06663 3.57401 11.98 5.48067 13.8133C6.18734 14.4933 7.09403 14.8333 8.00069 14.8333C8.90736 14.8333 9.81403 14.4933 10.514 13.8133C12.4207 11.98 14.5274 9.07329 13.7474 5.63329Z" fill="white"/>
<path d="M8.00103 8.97346C9.16083 8.97346 10.101 8.03326 10.101 6.87346C10.101 5.71364 9.16083 4.77344 8.00103 4.77344C6.84123 4.77344 5.901 5.71364 5.901 6.87346C5.901 8.03326 6.84123 8.97346 8.00103 8.97346Z" fill="white"/>
</svg>
