<svg width="56" height="56" viewBox="0 0 56 56" fill="none" xmlns="http://www.w3.org/2000/svg">
<path opacity="0.4" d="M28.0001 44.3334C37.0208 44.3334 44.3334 37.0207 44.3334 28C44.3334 18.9794 37.0208 11.6667 28.0001 11.6667C18.9794 11.6667 11.6667 18.9794 11.6667 28C11.6667 37.0207 18.9794 44.3334 28.0001 44.3334Z" fill="white"/>
<path d="M27.9999 53.5733C26.7166 53.5733 25.6666 52.6166 25.6666 51.3333V51.1466C25.6666 49.8633 26.7166 48.8133 27.9999 48.8133C29.2833 48.8133 30.3333 49.8633 30.3333 51.1466C30.3333 52.43 29.2833 53.5733 27.9999 53.5733ZM44.6599 46.9933C44.0532 46.9933 43.4699 46.76 43.0033 46.3166L42.6999 46.0133C41.7899 45.1033 41.7899 43.6333 42.6999 42.7233C43.6099 41.8133 45.0799 41.8133 45.9899 42.7233L46.2933 43.0266C47.2033 43.9366 47.2033 45.4066 46.2933 46.3166C45.8499 46.76 45.2666 46.9933 44.6599 46.9933ZM11.3399 46.9933C10.7333 46.9933 10.1499 46.76 9.68325 46.3166C8.77325 45.4066 8.77325 43.9366 9.68325 43.0266L9.98659 42.7233C10.8966 41.8133 12.3666 41.8133 13.2766 42.7233C14.1866 43.6333 14.1866 45.1033 13.2766 46.0133L12.9733 46.3166C12.5299 46.76 11.9233 46.9933 11.3399 46.9933ZM51.3333 30.3333H51.1466C49.8633 30.3333 48.8133 29.2833 48.8133 28C48.8133 26.7166 49.8633 25.6666 51.1466 25.6666C52.4299 25.6666 53.5732 26.7166 53.5732 28C53.5732 29.2833 52.6166 30.3333 51.3333 30.3333ZM4.85325 30.3333H4.66659C3.38325 30.3333 2.33325 29.2833 2.33325 28C2.33325 26.7166 3.38325 25.6666 4.66659 25.6666C5.94992 25.6666 7.09325 26.7166 7.09325 28C7.09325 29.2833 6.13658 30.3333 4.85325 30.3333ZM44.3566 13.9766C43.7499 13.9766 43.1666 13.7433 42.6999 13.3C41.7899 12.39 41.7899 10.92 42.6999 10.01L43.0033 9.70665C43.9132 8.79665 45.3833 8.79665 46.2933 9.70665C47.2033 10.6166 47.2033 12.0866 46.2933 12.9966L45.9899 13.3C45.5466 13.7433 44.9632 13.9766 44.3566 13.9766ZM11.6433 13.9766C11.0366 13.9766 10.4533 13.7433 9.98659 13.3L9.68325 12.9733C8.77325 12.0633 8.77325 10.5933 9.68325 9.68331C10.5933 8.77331 12.0633 8.77331 12.9733 9.68331L13.2766 9.98665C14.1866 10.8966 14.1866 12.3666 13.2766 13.2766C12.8333 13.7433 12.2266 13.9766 11.6433 13.9766ZM27.9999 7.09331C26.7166 7.09331 25.6666 6.13665 25.6666 4.85331V4.66665C25.6666 3.38331 26.7166 2.33331 27.9999 2.33331C29.2833 2.33331 30.3333 3.38331 30.3333 4.66665C30.3333 5.94998 29.2833 7.09331 27.9999 7.09331Z" fill="white"/>
</svg>
