<svg width="56" height="56" viewBox="0 0 56 56" fill="none" xmlns="http://www.w3.org/2000/svg">
<path d="M43.1215 28.5833C43.7749 28.5833 44.3349 28.0233 44.2882 27.37C43.6582 18.9233 36.6115 12.25 28.0015 12.25C19.3915 12.25 12.3449 18.9 11.7149 27.37C11.6682 28.0233 12.2282 28.5833 12.8815 28.5833H43.1215Z" fill="white"/>
<path d="M51.3333 30.3333H51.1466C49.8633 30.3333 48.8133 29.2833 48.8133 28C48.8133 26.7166 49.8633 25.6666 51.1466 25.6666C52.4299 25.6666 53.5732 26.7166 53.5732 28C53.5732 29.2833 52.6166 30.3333 51.3333 30.3333ZM4.8533 30.3333H4.66659C3.38325 30.3333 2.33325 29.2833 2.33325 28C2.33325 26.7166 3.38325 25.6666 4.66659 25.6666C5.94992 25.6666 7.0932 26.7166 7.0932 28C7.0932 29.2833 6.13663 30.3333 4.8533 30.3333ZM44.3566 13.9767C43.7499 13.9767 43.1666 13.7433 42.6999 13.3C41.7899 12.39 41.7899 10.92 42.6999 10.01L43.0033 9.70665C43.9132 8.79665 45.3833 8.79665 46.2933 9.70665C47.2033 10.6166 47.2033 12.0867 46.2933 12.9967L45.9899 13.3C45.5466 13.7433 44.9632 13.9767 44.3566 13.9767ZM11.6432 13.9767C11.0366 13.9767 10.4533 13.7433 9.98665 13.3L9.6833 12.9967C8.7733 12.0867 8.7733 10.6166 9.6833 9.70665C10.5933 8.79665 12.0633 8.79665 12.9733 9.70665L13.2766 10.01C14.1866 10.92 14.1866 12.39 13.2766 13.3C12.8333 13.7433 12.2266 13.9767 11.6432 13.9767ZM27.9999 7.09329C26.7166 7.09329 25.6666 6.13665 25.6666 4.85331V4.66665C25.6666 3.38331 26.7166 2.33331 27.9999 2.33331C29.2833 2.33331 30.3333 3.38331 30.3333 4.66665C30.3333 5.94998 29.2833 7.09329 27.9999 7.09329Z" fill="white"/>
<path opacity="0.4" d="M46.6666 36.75H9.33325C8.37659 36.75 7.58325 35.9567 7.58325 35C7.58325 34.0433 8.37659 33.25 9.33325 33.25H46.6666C47.6232 33.25 48.4166 34.0433 48.4166 35C48.4166 35.9567 47.6232 36.75 46.6666 36.75Z" fill="white"/>
<path opacity="0.4" d="M42 43.75H14C13.0433 43.75 12.25 42.9567 12.25 42C12.25 41.0433 13.0433 40.25 14 40.25H42C42.9567 40.25 43.75 41.0433 43.75 42C43.75 42.9567 42.9567 43.75 42 43.75Z" fill="white"/>
<path opacity="0.4" d="M35 50.75H21C20.0433 50.75 19.25 49.9567 19.25 49C19.25 48.0433 20.0433 47.25 21 47.25H35C35.9567 47.25 36.75 48.0433 36.75 49C36.75 49.9567 35.9567 50.75 35 50.75Z" fill="white"/>
</svg>
